<svg width="1168" height="1018" viewBox="0 0 1168 1018" fill="none" xmlns="http://www.w3.org/2000/svg">
<path d="M166.224 68.1386C216.651 130.068 244.581 207.008 271.053 282.501C297.525 357.994 324.177 435.175 372.745 498.611C421.294 562.048 496.654 610.474 576.07 605.129C731.625 594.64 833.677 422.033 978.983 376.299C1025.75 361.571 1080.46 363.46 1119.45 393.299C1174.02 435.034 1180.39 519.871 1149.54 581.439C1118.7 643.007 1059.66 685.103 999.442 718.037C953.191 743.336 904.862 764.776 855.114 782.097C792.421 803.899 724.473 820.898 677.503 868.019C617.966 927.758 630.173 974.517 662.858 1018H0V0H91.3633C119.394 18.9486 144.787 41.8155 166.224 68.1386Z" fill="#9B51E0"/>
</svg>
